<?xml version="1.0" standalone="no"?><!DOCTYPE svg PUBLIC "-//W3C//DTD SVG 1.1//EN" "http://www.w3.org/Graphics/SVG/1.1/DTD/svg11.dtd"><svg t="1531917853638" class="icon" style="" viewBox="0 0 1024 1024" version="1.1" xmlns="http://www.w3.org/2000/svg" p-id="1403" xmlns:xlink="http://www.w3.org/1999/xlink" width="200" height="200"><defs><style type="text/css"></style></defs><path d="M521.102222 233.813333c-80.782222 0-108.088889 16.497778-108.088889 16.497778s27.875556 104.675556 67.697778 110.933333c20.48 2.844444 31.288889 4.551111 40.96 4.551112 10.808889 0 20.48-2.275556 41.528889-6.257778 23.893333-5.12 67.697778-114.915556 67.697778-114.915556s-29.013333-10.808889-109.795556-10.808889zM484.693333 413.582222s-65.991111 271.928889-50.062222 309.475556c15.928889 37.546667 86.471111 79.644444 86.471111 79.644444s69.404444-44.942222 86.471111-79.644444-48.924444-309.475556-48.924444-309.475556h-73.955556z" p-id="1404" fill="#ffffff"></path><path d="M522.808889 51.768889c-257.706667 0-466.488889 208.782222-466.488889 466.488889s208.782222 466.488889 466.488889 466.488889 466.488889-208.782222 466.488889-466.488889-208.782222-466.488889-466.488889-466.488889zM672.426667 261.688889c-0.568889 1.137778-11.946667 29.582222-26.168889 58.595555-9.102222 18.204444-17.635556 32.995556-25.031111 44.942223-5.688889 8.533333-13.084444 18.204444-22.186667 25.6 1.706667 3.413333 3.413333 7.395556 4.551111 11.946666 0.568889 2.844444 17.066667 70.542222 31.288889 143.36 8.533333 43.235556 14.791111 79.644444 18.204444 108.088889 2.275556 18.204444 3.413333 32.426667 3.413334 44.942222 0.568889 19.342222-1.706667 32.995556-7.395556 44.373334-10.24 21.048889-30.72 43.235556-62.008889 68.266666-21.048889 16.497778-39.822222 29.013333-40.391111 29.582223-7.395556 5.12-16.497778 7.395556-25.031111 7.395555-7.964444 0-16.497778-2.275556-23.893333-6.826666-0.568889-0.568889-20.48-11.946667-41.528889-29.013334-32.995556-25.6-53.475556-48.924444-63.715556-71.68-6.257778-14.791111-9.102222-35.271111-2.275555-88.177778 3.413333-28.444444 9.671111-64.284444 18.204444-107.52 14.791111-72.817778 30.72-139.946667 31.288889-142.791111 0.568889-2.844444 1.706667-5.688889 2.844445-7.964444-9.102222-6.257778-18.204444-14.791111-26.168889-25.031111-9.671111-12.515556-18.204444-28.444444-26.737778-47.217778-13.084444-30.151111-21.048889-58.595556-21.048889-59.733333-5.12-19.911111 3.413333-40.96 21.048889-51.2 9.102222-5.688889 45.511111-23.324444 131.982222-23.324445 83.057778 0 117.191111 10.808889 125.724445 14.222222 11.377778 4.551111 20.48 13.084444 25.6 24.462223 3.413333 10.808889 3.982222 23.324444-0.568889 34.702222z" p-id="1405" fill="#ffffff"></path></svg>